<svg xmlns="http://www.w3.org/2000/svg" xmlns:xlink="http://www.w3.org/1999/xlink" viewBox="0 0 980 426" width="980" height="426" font-family="Segoe UI,Helvetica,Arial,sans-serif">
<defs><marker id="arw" markerWidth="9" markerHeight="9" refX="7.5" refY="4.5" orient="auto"><path d="M1,1 L8,4.5 L1,8 Z" fill="#b3590f"/></marker><filter id="sh" x="-20%" y="-20%" width="140%" height="150%"><feDropShadow dx="0" dy="3" stdDeviation="4" flood-color="#16294a" flood-opacity="0.10"/></filter></defs>
<rect x="0" y="0" width="980" height="426" rx="18" fill="#f6f9fc"/>
<text x="44" y="46" font-family="Segoe UI,Helvetica,Arial,sans-serif" font-size="20" font-weight="800" fill="#16294a">Arquitectura del laboratorio · Clase 1</text>
<rect x="494" y="151" width="230" height="160" rx="16" fill="#5B34C4" fill-opacity="0.05" stroke="#5B34C4" stroke-opacity="0.55" stroke-width="1.6" stroke-dasharray="7 5"/>
<rect x="494" y="138" width="204" height="24" rx="7" fill="#5B34C4"/>
<text x="596" y="154" text-anchor="middle" font-family="Segoe UI,Helvetica,Arial,sans-serif" font-size="12.5" font-weight="700" fill="#fff">VPC · subred pública · IGW</text>
<line x1="222" y1="159" x2="520" y2="214" stroke="#b3590f" stroke-width="2.4" marker-end="url(#arw)"/>
<rect x="336" y="176" width="70" height="20" rx="6" fill="#fff" stroke="#e4eaf3"/>
<text x="371" y="190" text-anchor="middle" font-family="Segoe UI,Helvetica,Arial,sans-serif" font-size="11" font-weight="600" fill="#1e3a63">ssm:config</text>
<line x1="222" y1="303" x2="520" y2="248" stroke="#b3590f" stroke-width="2.4" marker-end="url(#arw)"/>
<rect x="357" y="264" width="28" height="20" rx="6" fill="#fff" stroke="#e4eaf3"/>
<text x="371" y="278" text-anchor="middle" font-family="Segoe UI,Helvetica,Arial,sans-serif" font-size="11" font-weight="600" fill="#1e3a63">rol</text>
<line x1="698" y1="231" x2="758" y2="231" stroke="#b3590f" stroke-width="2.4" marker-end="url(#arw)"/>
<rect x="699" y="220" width="58" height="20" rx="6" fill="#fff" stroke="#e4eaf3"/>
<text x="728" y="234" text-anchor="middle" font-family="Segoe UI,Helvetica,Arial,sans-serif" font-size="11" font-weight="600" fill="#1e3a63">métricas</text>
<rect x="44" y="88" width="178" height="108" rx="14" fill="#ffffff" stroke="#e4eaf3" stroke-width="1.4" filter="url(#sh)"/>
<image href="../../assets/img/services/systems-manager.svg" x="114" y="100" width="38" height="38"/>
<text x="133" y="154" text-anchor="middle" font-family="Segoe UI,Helvetica,Arial,sans-serif" font-size="14.5" font-weight="700" fill="#16294a">SSM Parameter Store</text>
<text x="133" y="173" text-anchor="middle" font-family="Segoe UI,Helvetica,Arial,sans-serif" font-size="11.5" fill="#5f6f86">config del agente</text>
<rect x="44" y="266" width="178" height="108" rx="14" fill="#ffffff" stroke="#e4eaf3" stroke-width="1.4" filter="url(#sh)"/>
<image href="../../assets/img/services/iam.svg" x="114" y="278" width="38" height="38"/>
<text x="133" y="332" text-anchor="middle" font-family="Segoe UI,Helvetica,Arial,sans-serif" font-size="14.5" font-weight="700" fill="#16294a">IAM Role + Profile</text>
<text x="133" y="351" text-anchor="middle" font-family="Segoe UI,Helvetica,Arial,sans-serif" font-size="11.5" fill="#5f6f86">sin credenciales fijas</text>
<rect x="520" y="177" width="178" height="108" rx="14" fill="#ffffff" stroke="#e4eaf3" stroke-width="1.4" filter="url(#sh)"/>
<image href="../../assets/img/services/ec2.svg" x="590" y="189" width="38" height="38"/>
<text x="609" y="243" text-anchor="middle" font-family="Segoe UI,Helvetica,Arial,sans-serif" font-size="14.5" font-weight="700" fill="#16294a">EC2 + CloudWatch agent</text>
<text x="609" y="262" text-anchor="middle" font-family="Segoe UI,Helvetica,Arial,sans-serif" font-size="11.5" fill="#5f6f86">t3.micro · UserData</text>
<rect x="758" y="177" width="178" height="108" rx="14" fill="#ffffff" stroke="#e4eaf3" stroke-width="1.4" filter="url(#sh)"/>
<image href="../../assets/img/services/cloudwatch.svg" x="828" y="189" width="38" height="38"/>
<text x="847" y="243" text-anchor="middle" font-family="Segoe UI,Helvetica,Arial,sans-serif" font-size="14.5" font-weight="700" fill="#16294a">CloudWatch</text>
<text x="847" y="262" text-anchor="middle" font-family="Segoe UI,Helvetica,Arial,sans-serif" font-size="11.5" fill="#5f6f86">SO · hipervisor · custom</text>
</svg>
