<svg xmlns="http://www.w3.org/2000/svg" xmlns:xlink="http://www.w3.org/1999/xlink" viewBox="0 0 742 604" width="742" height="604" font-family="Segoe UI,Helvetica,Arial,sans-serif">
<defs><marker id="arw" markerWidth="9" markerHeight="9" refX="7.5" refY="4.5" orient="auto"><path d="M1,1 L8,4.5 L1,8 Z" fill="#b3590f"/></marker><filter id="sh" x="-20%" y="-20%" width="140%" height="150%"><feDropShadow dx="0" dy="3" stdDeviation="4" flood-color="#16294a" flood-opacity="0.10"/></filter></defs>
<rect x="0" y="0" width="742" height="604" rx="18" fill="#f6f9fc"/>
<text x="44" y="46" font-family="Segoe UI,Helvetica,Arial,sans-serif" font-size="20" font-weight="800" fill="#16294a">Arquitectura del laboratorio · Clase 4</text>
<rect x="18" y="240" width="468" height="338" rx="16" fill="#E8730C" fill-opacity="0.05" stroke="#E8730C" stroke-opacity="0.55" stroke-width="1.6" stroke-dasharray="7 5"/>
<rect x="18" y="227" width="138" height="24" rx="7" fill="#E8730C"/>
<text x="87" y="243" text-anchor="middle" font-family="Segoe UI,Helvetica,Arial,sans-serif" font-size="12.5" font-weight="700" fill="#fff">Clúster ECS · VPC</text>
<line x1="205" y1="196" x2="299" y2="266" stroke="#b3590f" stroke-width="2.4" marker-end="url(#arw)"/>
<rect x="232" y="220" width="40" height="20" rx="6" fill="#fff" stroke="#e4eaf3"/>
<text x="252" y="234" text-anchor="middle" font-family="Segoe UI,Helvetica,Arial,sans-serif" font-size="11" font-weight="600" fill="#1e3a63">roles</text>
<line x1="222" y1="320" x2="282" y2="320" stroke="#b3590f" stroke-width="2.4" marker-end="url(#arw)"/>
<rect x="232" y="309" width="40" height="20" rx="6" fill="#fff" stroke="#e4eaf3"/>
<text x="252" y="323" text-anchor="middle" font-family="Segoe UI,Helvetica,Arial,sans-serif" font-size="11" font-weight="600" fill="#1e3a63">corre</text>
<line x1="371" y1="374" x2="371" y2="444" stroke="#b3590f" stroke-width="2.4" marker-end="url(#arw)"/>
<rect x="348" y="398" width="46" height="20" rx="6" fill="#fff" stroke="#e4eaf3"/>
<text x="371" y="412" text-anchor="middle" font-family="Segoe UI,Helvetica,Arial,sans-serif" font-size="11" font-weight="600" fill="#1e3a63">stdout</text>
<line x1="460" y1="498" x2="520" y2="498" stroke="#b3590f" stroke-width="2.4" marker-end="url(#arw)"/>
<rect x="470" y="487" width="40" height="20" rx="6" fill="#fff" stroke="#e4eaf3"/>
<text x="490" y="501" text-anchor="middle" font-family="Segoe UI,Helvetica,Arial,sans-serif" font-size="11" font-weight="600" fill="#1e3a63">rutea</text>
<line x1="460" y1="320" x2="520" y2="320" stroke="#b3590f" stroke-width="2.4" marker-end="url(#arw)"/>
<rect x="461" y="309" width="58" height="20" rx="6" fill="#fff" stroke="#e4eaf3"/>
<text x="490" y="323" text-anchor="middle" font-family="Segoe UI,Helvetica,Arial,sans-serif" font-size="11" font-weight="600" fill="#1e3a63">métricas</text>
<rect x="44" y="88" width="178" height="108" rx="14" fill="#ffffff" stroke="#e4eaf3" stroke-width="1.4" filter="url(#sh)"/>
<image href="../../assets/img/services/iam.svg" x="114" y="100" width="38" height="38"/>
<text x="133" y="154" text-anchor="middle" font-family="Segoe UI,Helvetica,Arial,sans-serif" font-size="14.5" font-weight="700" fill="#16294a">IAM Roles</text>
<text x="133" y="173" text-anchor="middle" font-family="Segoe UI,Helvetica,Arial,sans-serif" font-size="11.5" fill="#5f6f86">task + execution</text>
<rect x="44" y="266" width="178" height="108" rx="14" fill="#ffffff" stroke="#e4eaf3" stroke-width="1.4" filter="url(#sh)"/>
<image href="../../assets/img/services/ecs.svg" x="114" y="278" width="38" height="38"/>
<text x="133" y="332" text-anchor="middle" font-family="Segoe UI,Helvetica,Arial,sans-serif" font-size="14.5" font-weight="700" fill="#16294a">ECS Service</text>
<text x="133" y="351" text-anchor="middle" font-family="Segoe UI,Helvetica,Arial,sans-serif" font-size="11.5" fill="#5f6f86">mantiene la tarea</text>
<rect x="282" y="266" width="178" height="108" rx="14" fill="#ffffff" stroke="#e4eaf3" stroke-width="1.4" filter="url(#sh)"/>
<image href="../../assets/img/services/fargate.svg" x="352" y="278" width="38" height="38"/>
<text x="371" y="332" text-anchor="middle" font-family="Segoe UI,Helvetica,Arial,sans-serif" font-size="14.5" font-weight="700" fill="#16294a">Tarea Fargate</text>
<text x="371" y="351" text-anchor="middle" font-family="Segoe UI,Helvetica,Arial,sans-serif" font-size="11.5" fill="#5f6f86">app + log router</text>
<rect x="282" y="444" width="178" height="108" rx="14" fill="#ffffff" stroke="#e4eaf3" stroke-width="1.4" filter="url(#sh)"/>
<image href="../../assets/img/services/firelens.svg" x="352" y="456" width="38" height="38"/>
<text x="371" y="510" text-anchor="middle" font-family="Segoe UI,Helvetica,Arial,sans-serif" font-size="14.5" font-weight="700" fill="#16294a">FireLens / awslogs</text>
<text x="371" y="529" text-anchor="middle" font-family="Segoe UI,Helvetica,Arial,sans-serif" font-size="11.5" fill="#5f6f86">driver de logs</text>
<rect x="520" y="266" width="178" height="108" rx="14" fill="#ffffff" stroke="#e4eaf3" stroke-width="1.4" filter="url(#sh)"/>
<image href="../../assets/img/services/container-insights.svg" x="590" y="278" width="38" height="38"/>
<text x="609" y="332" text-anchor="middle" font-family="Segoe UI,Helvetica,Arial,sans-serif" font-size="14.5" font-weight="700" fill="#16294a">Container Insights</text>
<text x="609" y="351" text-anchor="middle" font-family="Segoe UI,Helvetica,Arial,sans-serif" font-size="11.5" fill="#5f6f86">métricas tarea/contenedor</text>
<rect x="520" y="444" width="178" height="108" rx="14" fill="#ffffff" stroke="#e4eaf3" stroke-width="1.4" filter="url(#sh)"/>
<image href="../../assets/img/services/cloudwatch-logs.svg" x="590" y="456" width="38" height="38"/>
<text x="609" y="510" text-anchor="middle" font-family="Segoe UI,Helvetica,Arial,sans-serif" font-size="14.5" font-weight="700" fill="#16294a">Log groups</text>
<text x="609" y="529" text-anchor="middle" font-family="Segoe UI,Helvetica,Arial,sans-serif" font-size="11.5" fill="#5f6f86">app + firelens</text>
</svg>
