<svg xmlns="http://www.w3.org/2000/svg" viewBox="0 0 80 80" width="80" height="80" role="img" aria-label="AWS Chatbot">
  <defs>
    <linearGradient id="grad_chatbot" x1="0" y1="0" x2="1" y2="1">
      <stop offset="0" stop-color="#2E73B8"/>
      <stop offset="1" stop-color="#215284"/>
    </linearGradient>
  </defs>
  <rect x="2" y="2" width="76" height="76" rx="16" fill="url(#grad_chatbot)"/>
  <g fill="none" stroke="#ffffff" stroke-width="3" stroke-linecap="round" stroke-linejoin="round" transform="translate(20,20)">
    <path d="M6 8 h28 a2 2 0 0 1 2 2 v14 a2 2 0 0 1 -2 2 h-14 l-8 6 v-6 h-6 a2 2 0 0 1 -2 -2 v-14 a2 2 0 0 1 2 -2 z"/><circle cx="14" cy="17" r="1.6" fill="#fff"/><circle cx="20" cy="17" r="1.6" fill="#fff"/><circle cx="26" cy="17" r="1.6" fill="#fff"/>
  </g>
</svg>
